<svg width="26" height="27" viewBox="0 0 26 27" fill="none" xmlns="http://www.w3.org/2000/svg">
<path d="M3.70815 1.08333C3.37481 1.91667 4.54148 2.875 5.16648 2.25C5.74981 1.66667 5.29148 0.500001 4.49981 0.500001C4.20815 0.500001 3.83315 0.750001 3.70815 1.08333Z" fill="#F3A941"/>
<path d="M20.6248 1.16667C20.4998 1.5 20.5831 2 20.8331 2.25C21.4581 2.875 22.6248 1.91667 22.2915 1.08333C21.9998 0.291667 20.9581 0.333334 20.6248 1.16667Z" fill="#F3A941"/>
<path d="M11.5416 1.08333C11.3333 1.20833 10.6249 1.375 9.99992 1.5C8.45825 1.83333 6.04159 4 5.08325 5.91667C3.20825 9.58333 3.74992 12.5417 7.16659 17C8.37492 18.5417 9.41659 20.0833 9.54159 20.375C9.83325 21.125 16.1666 21.125 16.4583 20.375C16.5833 20.0833 17.6249 18.5417 18.8333 17C22.1666 12.6667 22.7916 9.58333 21.0416 6.125C20.2083 4.5 18.4999 2.66667 17.1249 1.95833C16.0416 1.375 12.2916 0.791668 11.5416 1.08333ZM14.8749 8.83333C15.9166 8.83333 16.7499 8.95833 16.7499 9.08333C16.7499 9.25 15.9583 10.7917 14.9999 12.5417L13.2083 15.7083L13.0833 13.2917L12.9583 10.9167H11.0833C10.0416 10.9167 9.24992 10.7917 9.33325 10.5833C9.41659 10.4167 10.2083 8.91667 11.1249 7.20833L12.7916 4.16667L12.9166 6.5L13.0416 8.83333H14.8749Z" fill="#F3A941"/>
<path d="M0.541396 9.24999C-0.166937 9.66666 0.249729 10.9167 1.08306 10.9167C1.37473 10.9167 1.74973 10.6667 1.87473 10.3333C2.20806 9.54166 1.24973 8.79166 0.541396 9.24999Z" fill="#F3A941"/>
<path d="M24.2913 9.37501C23.7079 10.0833 24.4163 11.0833 25.2496 10.7917C25.6246 10.625 25.9163 10.25 25.9163 9.91668C25.9163 9.12501 24.8329 8.75001 24.2913 9.37501Z" fill="#F3A941"/>
<path d="M3.58293 18.0417C3.45793 18.2917 3.58293 18.75 3.8746 19.0833C4.6246 19.7917 5.70793 19.1667 5.3746 18.25C5.08293 17.5 3.9996 17.375 3.58293 18.0417Z" fill="#F3A941"/>
<path d="M20.6245 18.25C20.2912 19.1667 21.3745 19.7917 22.1245 19.0833C22.4162 18.75 22.5412 18.2917 22.4162 18.0417C21.9995 17.375 20.9162 17.5 20.6245 18.25Z" fill="#F3A941"/>
<path d="M10.1662 24.0833C10.2495 24.7083 10.6662 25.4167 11.1245 25.6667C11.5412 25.9167 12.1662 26.375 12.4995 26.625C13.2912 27.375 15.9162 25.375 15.9162 24C15.9162 23.0417 15.7912 23 12.9578 23C10.0412 23 10.0412 23 10.1662 24.0833Z" fill="#F3A941"/>
</svg>
