<svg width="30" height="30" viewBox="0 0 30 30" fill="none" xmlns="http://www.w3.org/2000/svg">
<path d="M3.33366 4.95831C3.12533 5.41665 2.91699 6.91665 2.91699 8.29165V10.8333H15.0003H27.0837V9.16665C27.0837 8.04165 26.792 7.20831 26.2503 6.66665C25.5003 5.91665 24.8753 5.83331 18.8337 5.83331C12.7503 5.83331 12.167 5.74998 11.4587 4.99998C10.8337 4.29165 10.167 4.16665 7.25033 4.16665C4.25033 4.16665 3.70866 4.29165 3.33366 4.95831Z" fill="#F3A941"/>
<path d="M1.45854 13.5833C1.08354 13.9583 0.875207 14.5 1.00021 14.7917C1.08354 15.0417 1.75021 17.25 2.50021 19.625C4.58354 26.4583 3.29187 25.8333 15.0002 25.8333C26.7085 25.8333 25.4169 26.4583 27.5002 19.625C28.2502 17.25 28.9169 15.0417 29.0002 14.7917C29.1252 14.5 28.9169 13.9583 28.5419 13.5833C27.9585 13 26.3335 12.9167 15.0002 12.9167C3.66687 12.9167 2.04187 13 1.45854 13.5833Z" fill="#F3A941"/>
</svg>
