<svg width="149" height="49" viewBox="0 0 149 49" fill="none" xmlns="http://www.w3.org/2000/svg">
<mask id="path-1-outside-1_197_97" maskUnits="userSpaceOnUse" x="-1" y="-1" width="151" height="51" fill="black">
<rect fill="white" x="-1" y="-1" width="151" height="51"/>
<path d="M0.2 14.448C0.2 12.3947 0.442667 10.5093 0.928 8.792C1.45067 7.03733 2.272 5.52533 3.392 4.256C4.54933 2.98667 6.024 1.99733 7.816 1.288C9.64533 0.541331 11.8667 0.167998 14.48 0.167998C17.0933 0.167998 19.296 0.541331 21.088 1.288C22.9173 1.99733 24.392 2.98667 25.512 4.256C26.6693 5.52533 27.4907 7.03733 27.976 8.792C28.4987 10.5093 28.76 12.3947 28.76 14.448V21.728H40.24V0.727997H43.6V48.104H40.24V24.64H28.76V34.384C28.76 36.4373 28.4987 38.3413 27.976 40.096C27.4907 41.8133 26.6693 43.3067 25.512 44.576C24.392 45.8453 22.9173 46.8347 21.088 47.544C19.296 48.2907 17.0933 48.664 14.48 48.664C11.8667 48.664 9.64533 48.2907 7.816 47.544C6.024 46.8347 4.54933 45.8453 3.392 44.576C2.272 43.3067 1.45067 41.8133 0.928 40.096C0.442667 38.3413 0.2 36.4373 0.2 34.384V14.448ZM14.48 45.752C16.5333 45.752 18.2507 45.472 19.632 44.912C21.0507 44.352 22.1893 43.568 23.048 42.56C23.9067 41.552 24.504 40.3573 24.84 38.976C25.2133 37.5947 25.4 36.064 25.4 34.384V14.448C25.4 12.768 25.2133 11.2373 24.84 9.856C24.504 8.47467 23.9067 7.28 23.048 6.272C22.1893 5.264 21.0507 4.48 19.632 3.92C18.2507 3.36 16.5333 3.08 14.48 3.08C12.3893 3.08 10.6533 3.36 9.272 3.92C7.89067 4.48 6.77067 5.264 5.912 6.272C5.05333 7.28 4.43733 8.47467 4.064 9.856C3.728 11.2373 3.56 12.768 3.56 14.448V34.384C3.56 36.064 3.728 37.5947 4.064 38.976C4.43733 40.3573 5.05333 41.552 5.912 42.56C6.77067 43.568 7.89067 44.352 9.272 44.912C10.6533 45.472 12.3893 45.752 14.48 45.752ZM14.48 29.848C14.368 27.6453 13.8827 26.1333 13.024 25.312C12.1653 24.4907 10.8213 24.0427 8.992 23.968C10.8213 23.8933 12.1653 23.4453 13.024 22.624C13.8827 21.8027 14.368 20.2907 14.48 18.088C14.592 20.2907 15.0587 21.8027 15.88 22.624C16.7387 23.4453 18.1013 23.8933 19.968 23.968C18.1013 24.0427 16.7387 24.4907 15.88 25.312C15.0587 26.1333 14.592 27.6453 14.48 29.848ZM92.3025 0.727997H95.6625V30.072H92.3025V0.727997ZM81.6065 0.727997V3.64H55.9025V21.672H66.9905C70.0892 21.672 73.0012 21.5787 75.7265 21.392C78.4892 21.2053 81.1025 20.9627 83.5665 20.664V23.576C81.1025 23.8747 78.4892 24.1173 75.7265 24.304C73.0012 24.4907 70.0892 24.584 66.9905 24.584H52.5425V0.727997H81.6065ZM73.5425 28.952H77.2385L98.7985 48.104H94.4305L75.3905 31.304L56.3505 48.104H51.9825L73.5425 28.952ZM107.965 25.032H148.005V27.944H127.845V45.192H148.285V48.104H104.045V45.192H124.485V27.944H104.605V0.727997H107.965V25.032Z"/>
</mask>
<path d="M0.2 14.448C0.2 12.3947 0.442667 10.5093 0.928 8.792C1.45067 7.03733 2.272 5.52533 3.392 4.256C4.54933 2.98667 6.024 1.99733 7.816 1.288C9.64533 0.541331 11.8667 0.167998 14.48 0.167998C17.0933 0.167998 19.296 0.541331 21.088 1.288C22.9173 1.99733 24.392 2.98667 25.512 4.256C26.6693 5.52533 27.4907 7.03733 27.976 8.792C28.4987 10.5093 28.76 12.3947 28.76 14.448V21.728H40.24V0.727997H43.6V48.104H40.24V24.64H28.76V34.384C28.76 36.4373 28.4987 38.3413 27.976 40.096C27.4907 41.8133 26.6693 43.3067 25.512 44.576C24.392 45.8453 22.9173 46.8347 21.088 47.544C19.296 48.2907 17.0933 48.664 14.48 48.664C11.8667 48.664 9.64533 48.2907 7.816 47.544C6.024 46.8347 4.54933 45.8453 3.392 44.576C2.272 43.3067 1.45067 41.8133 0.928 40.096C0.442667 38.3413 0.2 36.4373 0.2 34.384V14.448ZM14.48 45.752C16.5333 45.752 18.2507 45.472 19.632 44.912C21.0507 44.352 22.1893 43.568 23.048 42.56C23.9067 41.552 24.504 40.3573 24.84 38.976C25.2133 37.5947 25.4 36.064 25.4 34.384V14.448C25.4 12.768 25.2133 11.2373 24.84 9.856C24.504 8.47467 23.9067 7.28 23.048 6.272C22.1893 5.264 21.0507 4.48 19.632 3.92C18.2507 3.36 16.5333 3.08 14.48 3.08C12.3893 3.08 10.6533 3.36 9.272 3.92C7.89067 4.48 6.77067 5.264 5.912 6.272C5.05333 7.28 4.43733 8.47467 4.064 9.856C3.728 11.2373 3.56 12.768 3.56 14.448V34.384C3.56 36.064 3.728 37.5947 4.064 38.976C4.43733 40.3573 5.05333 41.552 5.912 42.56C6.77067 43.568 7.89067 44.352 9.272 44.912C10.6533 45.472 12.3893 45.752 14.48 45.752ZM14.48 29.848C14.368 27.6453 13.8827 26.1333 13.024 25.312C12.1653 24.4907 10.8213 24.0427 8.992 23.968C10.8213 23.8933 12.1653 23.4453 13.024 22.624C13.8827 21.8027 14.368 20.2907 14.48 18.088C14.592 20.2907 15.0587 21.8027 15.88 22.624C16.7387 23.4453 18.1013 23.8933 19.968 23.968C18.1013 24.0427 16.7387 24.4907 15.88 25.312C15.0587 26.1333 14.592 27.6453 14.48 29.848ZM92.3025 0.727997H95.6625V30.072H92.3025V0.727997ZM81.6065 0.727997V3.64H55.9025V21.672H66.9905C70.0892 21.672 73.0012 21.5787 75.7265 21.392C78.4892 21.2053 81.1025 20.9627 83.5665 20.664V23.576C81.1025 23.8747 78.4892 24.1173 75.7265 24.304C73.0012 24.4907 70.0892 24.584 66.9905 24.584H52.5425V0.727997H81.6065ZM73.5425 28.952H77.2385L98.7985 48.104H94.4305L75.3905 31.304L56.3505 48.104H51.9825L73.5425 28.952ZM107.965 25.032H148.005V27.944H127.845V45.192H148.285V48.104H104.045V45.192H124.485V27.944H104.605V0.727997H107.965V25.032Z" fill="#F3A941"/>
<path d="M0.928 8.792L-0.0304801 8.50649L-0.0343089 8.52004L0.928 8.792ZM3.392 4.256L2.65304 3.58224L2.64755 3.58827L2.64216 3.59438L3.392 4.256ZM7.816 1.288L8.18407 2.21786L8.1939 2.21384L7.816 1.288ZM21.088 1.288L20.7034 2.21107L20.7149 2.21586L20.7265 2.22036L21.088 1.288ZM25.512 4.256L24.7622 4.91762L24.7676 4.92373L24.773 4.92975L25.512 4.256ZM27.976 8.792L27.0122 9.05858L27.0156 9.07092L27.0193 9.08316L27.976 8.792ZM28.76 21.728H27.76V22.728H28.76V21.728ZM40.24 21.728V22.728H41.24V21.728H40.24ZM40.24 0.727997V-0.272003H39.24V0.727997H40.24ZM43.6 0.727997H44.6V-0.272003H43.6V0.727997ZM43.6 48.104V49.104H44.6V48.104H43.6ZM40.24 48.104H39.24V49.104H40.24V48.104ZM40.24 24.64H41.24V23.64H40.24V24.64ZM28.76 24.64V23.64H27.76V24.64H28.76ZM27.976 40.096L27.0175 39.8105L27.0137 39.824L27.976 40.096ZM25.512 44.576L24.773 43.9022L24.7676 43.9083L24.7622 43.9144L25.512 44.576ZM21.088 47.544L20.7265 46.6116L20.7149 46.6161L20.7034 46.6209L21.088 47.544ZM7.816 47.544L8.19392 46.6181L8.18405 46.6142L7.816 47.544ZM3.392 44.576L2.64216 45.2376L2.64755 45.2437L2.65304 45.2498L3.392 44.576ZM0.928 40.096L-0.0358107 40.3626L-0.0323994 40.3749L-0.0286734 40.3872L0.928 40.096ZM19.632 44.912L19.2648 43.9818L19.2563 43.9853L19.632 44.912ZM23.048 42.56L22.2868 41.9115H22.2868L23.048 42.56ZM24.84 38.976L23.8746 38.7151L23.8713 38.7273L23.8683 38.7396L24.84 38.976ZM24.84 9.856L23.8683 10.0924L23.8713 10.1047L23.8746 10.1169L24.84 9.856ZM23.048 6.272L22.2868 6.92047H22.2868L23.048 6.272ZM19.632 3.92L19.2563 4.84678L19.2648 4.85015L19.632 3.92ZM9.272 3.92L9.64771 4.84674H9.64771L9.272 3.92ZM5.912 6.272L5.15076 5.62353L5.912 6.272ZM4.064 9.856L3.09864 9.59509L3.09533 9.60733L3.09233 9.61965L4.064 9.856ZM4.064 38.976L3.09233 39.2124L3.09533 39.2247L3.09864 39.2369L4.064 38.976ZM5.912 42.56L5.15076 43.2085L5.912 42.56ZM9.272 44.912L9.64771 43.9853L9.272 44.912ZM14.48 29.848L13.4813 29.8988H15.4787L14.48 29.848ZM13.024 25.312L12.3328 26.0346L13.024 25.312ZM8.992 23.968L8.95122 22.9688L8.95122 24.9672L8.992 23.968ZM14.48 18.088L15.4787 18.0372H13.4813L14.48 18.088ZM15.88 22.624L15.1729 23.3311L15.1807 23.339L15.1888 23.3466L15.88 22.624ZM19.968 23.968L20.008 24.9672L20.008 22.9688L19.968 23.968ZM15.88 25.312L15.1888 24.5894L15.1807 24.597L15.1729 24.6049L15.88 25.312ZM1.2 14.448C1.2 12.4731 1.43341 10.6807 1.89031 9.06395L-0.0343089 8.52004C-0.548078 10.338 -0.8 12.3162 -0.8 14.448H1.2ZM1.88639 9.07747C2.37107 7.45032 3.12545 6.06952 4.14184 4.91762L2.64216 3.59438C1.41855 4.98114 0.530265 6.62434 -0.0303853 8.50652L1.88639 9.07747ZM4.13096 4.92975C5.17384 3.78594 6.51615 2.87801 8.18405 2.2178L7.44795 0.358191C5.53185 1.11665 3.92483 2.18739 2.65304 3.58224L4.13096 4.92975ZM8.1939 2.21384C9.87136 1.52917 11.9567 1.168 14.48 1.168V-0.832003C11.7767 -0.832003 9.41931 -0.446504 7.4381 0.362149L8.1939 2.21384ZM14.48 1.168C17.0044 1.168 19.0675 1.52947 20.7034 2.21107L21.4726 0.36492C19.5245 -0.446813 17.1823 -0.832003 14.48 -0.832003V1.168ZM20.7265 2.22036C22.4304 2.88105 23.7638 3.78609 24.7622 4.91762L26.2618 3.59438C25.0202 2.18724 23.4043 1.11361 21.4495 0.355636L20.7265 2.22036ZM24.773 4.92975C25.8181 6.07599 26.5662 7.44611 27.0122 9.05858L28.9398 8.52541C28.4151 6.62855 27.5205 4.97468 26.251 3.58224L24.773 4.92975ZM27.0193 9.08316C27.5095 10.6937 27.76 12.4794 27.76 14.448H29.76C29.76 12.3099 29.4879 10.325 28.9327 8.50084L27.0193 9.08316ZM27.76 14.448V21.728H29.76V14.448H27.76ZM28.76 22.728H40.24V20.728H28.76V22.728ZM41.24 21.728V0.727997H39.24V21.728H41.24ZM40.24 1.728H43.6V-0.272003H40.24V1.728ZM42.6 0.727997V48.104H44.6V0.727997H42.6ZM43.6 47.104H40.24V49.104H43.6V47.104ZM41.24 48.104V24.64H39.24V48.104H41.24ZM40.24 23.64H28.76V25.64H40.24V23.64ZM27.76 24.64V34.384H29.76V24.64H27.76ZM27.76 34.384C27.76 36.3522 27.5096 38.159 27.0176 39.8105L28.9344 40.3815C29.4878 38.5237 29.76 36.5224 29.76 34.384H27.76ZM27.0137 39.824C26.5689 41.3979 25.8216 42.7522 24.773 43.9022L26.251 45.2498C27.5171 43.8611 28.4124 42.2287 28.9383 40.368L27.0137 39.824ZM24.7622 43.9144C23.7638 45.0459 22.4304 45.9509 20.7265 46.6116L21.4495 48.4764C23.4043 47.7184 25.0202 46.6448 26.2618 45.2376L24.7622 43.9144ZM20.7034 46.6209C19.0675 47.3025 17.0044 47.664 14.48 47.664V49.664C17.1823 49.664 19.5245 49.2788 21.4726 48.4671L20.7034 46.6209ZM14.48 47.664C11.9567 47.664 9.87136 47.3028 8.1939 46.6182L7.4381 48.4698C9.41931 49.2785 11.7767 49.664 14.48 49.664V47.664ZM8.18405 46.6142C6.51615 45.954 5.17384 45.0461 4.13096 43.9022L2.65304 45.2498C3.92483 46.6446 5.53185 47.7153 7.44795 48.4738L8.18405 46.6142ZM4.14184 43.9144C3.12215 42.7587 2.36825 41.3937 1.88467 39.8048L-0.0286734 40.3872C0.53308 42.2329 1.42185 43.8546 2.64216 45.2376L4.14184 43.9144ZM1.89181 39.8294C1.43333 38.1718 1.2 36.3586 1.2 34.384H-0.8C-0.8 36.5161 -0.547998 38.5108 -0.0358107 40.3626L1.89181 39.8294ZM1.2 34.384V14.448H-0.8V34.384H1.2ZM14.48 46.752C16.6167 46.752 18.4711 46.4617 20.0077 45.8387L19.2563 43.9853C18.0302 44.4823 16.4499 44.752 14.48 44.752V46.752ZM19.9992 45.8422C21.547 45.2312 22.8291 44.359 23.8092 43.2085L22.2868 41.9115C21.5495 42.777 20.5543 43.4728 19.2648 43.9818L19.9992 45.8422ZM23.8092 43.2085C24.7767 42.0728 25.4415 40.7342 25.8117 39.2124L23.8683 38.7396C23.5665 39.9805 23.0367 41.0312 22.2868 41.9115L23.8092 43.2085ZM25.8054 39.2369C26.2053 37.7573 26.4 36.1372 26.4 34.384H24.4C24.4 35.9908 24.2214 37.4321 23.8746 38.7151L25.8054 39.2369ZM26.4 34.384V14.448H24.4V34.384H26.4ZM26.4 14.448C26.4 12.6948 26.2053 11.0747 25.8054 9.59509L23.8746 10.1169C24.2214 11.3999 24.4 12.8412 24.4 14.448H26.4ZM25.8117 9.61965C25.4415 8.09782 24.7767 6.75921 23.8092 5.62353L22.2868 6.92047C23.0367 7.80079 23.5665 8.85151 23.8683 10.0924L25.8117 9.61965ZM23.8092 5.62353C22.8291 4.47299 21.547 3.60083 19.9992 2.98984L19.2648 4.85015C20.5543 5.35917 21.5495 6.05501 22.2868 6.92047L23.8092 5.62353ZM20.0077 2.99326C18.4712 2.37033 16.6167 2.08 14.48 2.08V4.08C16.4499 4.08 18.0302 4.34966 19.2563 4.84674L20.0077 2.99326ZM14.48 2.08C12.3086 2.08 10.4347 2.3696 8.89629 2.99326L9.64771 4.84674C10.872 4.3504 12.47 4.08 14.48 4.08V2.08ZM8.8963 2.99326C7.38489 3.60599 6.12619 4.47846 5.15076 5.62353L6.67324 6.92047C7.41514 6.04954 8.39644 5.35401 9.64771 4.84674L8.8963 2.99326ZM5.15076 5.62353C4.18869 6.75292 3.50737 8.08277 3.09864 9.59509L5.02936 10.1169C5.3673 8.86656 5.91798 7.80708 6.67324 6.92047L5.15076 5.62353ZM3.09233 9.61965C2.73447 11.0908 2.56 12.7023 2.56 14.448H4.56C4.56 12.8337 4.72153 11.3838 5.03567 10.0924L3.09233 9.61965ZM2.56 14.448V34.384H4.56V14.448H2.56ZM2.56 34.384C2.56 36.1297 2.73447 37.7412 3.09233 39.2124L5.03567 38.7396C4.72153 37.4482 4.56 35.9983 4.56 34.384H2.56ZM3.09864 39.2369C3.50737 40.7492 4.18869 42.0791 5.15076 43.2085L6.67324 41.9115C5.91798 41.0249 5.3673 39.9654 5.02936 38.7151L3.09864 39.2369ZM5.15076 43.2085C6.12619 44.3535 7.38489 45.226 8.8963 45.8387L9.64771 43.9853C8.39644 43.478 7.41514 42.7825 6.67324 41.9115L5.15076 43.2085ZM8.8963 45.8387C10.4347 46.4624 12.3086 46.752 14.48 46.752V44.752C12.47 44.752 10.872 44.4816 9.64771 43.9853L8.8963 45.8387ZM15.4787 29.7972C15.3637 27.5345 14.8628 25.687 13.7152 24.5894L12.3328 26.0346C12.9026 26.5797 13.3723 27.7562 13.4813 29.8988L15.4787 29.7972ZM13.7152 24.5894C12.6068 23.5292 10.9791 23.0483 9.03278 22.9688L8.95122 24.9672C10.6636 25.0371 11.7238 25.4522 12.3328 26.0346L13.7152 24.5894ZM9.03278 24.9672C10.9791 24.8877 12.6068 24.4068 13.7152 23.3466L12.3328 21.9014C11.7238 22.4838 10.6636 22.8989 8.95122 22.9688L9.03278 24.9672ZM13.7152 23.3466C14.8628 22.249 15.3637 20.4015 15.4787 18.1388L13.4813 18.0372C13.3723 20.1798 12.9026 21.3563 12.3328 21.9014L13.7152 23.3466ZM13.4813 18.1388C13.5959 20.3937 14.0753 22.2335 15.1729 23.3311L16.5871 21.9169C16.0421 21.3719 15.5881 20.1877 15.4787 18.0372L13.4813 18.1388ZM15.1888 23.3466C16.3004 24.4099 17.9505 24.8881 19.928 24.9672L20.008 22.9688C18.2521 22.8986 17.177 22.4808 16.5712 21.9014L15.1888 23.3466ZM19.928 22.9688C17.9505 23.0479 16.3004 23.5261 15.1888 24.5894L16.5712 26.0346C17.177 25.4552 18.2521 25.0374 20.008 24.9672L19.928 22.9688ZM15.1729 24.6049C14.0753 25.7025 13.5959 27.5423 13.4813 29.7972L15.4787 29.8988C15.5881 27.7483 16.0421 26.5641 16.5871 26.0191L15.1729 24.6049ZM92.3025 0.727997V-0.272003H91.3025V0.727997H92.3025ZM95.6625 0.727997H96.6625V-0.272003H95.6625V0.727997ZM95.6625 30.072V31.072H96.6625V30.072H95.6625ZM92.3025 30.072H91.3025V31.072H92.3025V30.072ZM81.6065 0.727997H82.6065V-0.272003H81.6065V0.727997ZM81.6065 3.64V4.64H82.6065V3.64H81.6065ZM55.9025 3.64V2.64H54.9025V3.64H55.9025ZM55.9025 21.672H54.9025V22.672H55.9025V21.672ZM75.7265 21.392L75.6591 20.3943L75.6582 20.3943L75.7265 21.392ZM83.5665 20.664H84.5665V19.5355L83.4462 19.6713L83.5665 20.664ZM83.5665 23.576L83.6868 24.5687L84.5665 24.4621V23.576H83.5665ZM75.7265 24.304L75.6591 23.3063L75.6582 23.3063L75.7265 24.304ZM52.5425 24.584H51.5425V25.584H52.5425V24.584ZM52.5425 0.727997V-0.272003H51.5425V0.727997H52.5425ZM73.5425 28.952V27.952H73.1625L72.8784 28.2044L73.5425 28.952ZM77.2385 28.952L77.9026 28.2044L77.6185 27.952H77.2385V28.952ZM98.7985 48.104V49.104H101.43L99.4626 47.3564L98.7985 48.104ZM94.4305 48.104L93.7689 48.8538L94.0524 49.104H94.4305V48.104ZM75.3905 31.304L76.0521 30.5542L75.3905 29.9704L74.7289 30.5542L75.3905 31.304ZM56.3505 48.104V49.104H56.7286L57.0121 48.8538L56.3505 48.104ZM51.9825 48.104L51.3184 47.3564L49.351 49.104H51.9825V48.104ZM92.3025 1.728H95.6625V-0.272003H92.3025V1.728ZM94.6625 0.727997V30.072H96.6625V0.727997H94.6625ZM95.6625 29.072H92.3025V31.072H95.6625V29.072ZM93.3025 30.072V0.727997H91.3025V30.072H93.3025ZM80.6065 0.727997V3.64H82.6065V0.727997H80.6065ZM81.6065 2.64H55.9025V4.64H81.6065V2.64ZM54.9025 3.64V21.672H56.9025V3.64H54.9025ZM55.9025 22.672H66.9905V20.672H55.9025V22.672ZM66.9905 22.672C70.109 22.672 73.044 22.5781 75.7948 22.3897L75.6582 20.3943C72.9584 20.5793 70.0693 20.672 66.9905 20.672V22.672ZM75.7939 22.3897C78.5723 22.202 81.2034 21.9578 83.6868 21.6567L83.4462 19.6713C81.0016 19.9676 78.4061 20.2087 75.6591 20.3943L75.7939 22.3897ZM82.5665 20.664V23.576H84.5665V20.664H82.5665ZM83.4462 22.5833C81.0016 22.8796 78.4061 23.1207 75.6591 23.3063L75.7939 25.3017C78.5723 25.114 81.2034 24.8698 83.6868 24.5687L83.4462 22.5833ZM75.6582 23.3063C72.9584 23.4913 70.0693 23.584 66.9905 23.584V25.584C70.109 25.584 73.044 25.4901 75.7948 25.3017L75.6582 23.3063ZM66.9905 23.584H52.5425V25.584H66.9905V23.584ZM53.5425 24.584V0.727997H51.5425V24.584H53.5425ZM52.5425 1.728H81.6065V-0.272003H52.5425V1.728ZM73.5425 29.952H77.2385V27.952H73.5425V29.952ZM76.5744 29.6996L98.1344 48.8516L99.4626 47.3564L77.9026 28.2044L76.5744 29.6996ZM98.7985 47.104H94.4305V49.104H98.7985V47.104ZM95.0921 47.3542L76.0521 30.5542L74.7289 32.0538L93.7689 48.8538L95.0921 47.3542ZM74.7289 30.5542L55.6889 47.3542L57.0121 48.8538L76.0521 32.0538L74.7289 30.5542ZM56.3505 47.104H51.9825V49.104H56.3505V47.104ZM52.6466 48.8516L74.2066 29.6996L72.8784 28.2044L51.3184 47.3564L52.6466 48.8516ZM107.965 25.032H106.965V26.032H107.965V25.032ZM148.005 25.032H149.005V24.032H148.005V25.032ZM148.005 27.944V28.944H149.005V27.944H148.005ZM127.845 27.944V26.944H126.845V27.944H127.845ZM127.845 45.192H126.845V46.192H127.845V45.192ZM148.285 45.192H149.285V44.192H148.285V45.192ZM148.285 48.104V49.104H149.285V48.104H148.285ZM104.045 48.104H103.045V49.104H104.045V48.104ZM104.045 45.192V44.192H103.045V45.192H104.045ZM124.485 45.192V46.192H125.485V45.192H124.485ZM124.485 27.944H125.485V26.944H124.485V27.944ZM104.605 27.944H103.605V28.944H104.605V27.944ZM104.605 0.727997V-0.272003H103.605V0.727997H104.605ZM107.965 0.727997H108.965V-0.272003H107.965V0.727997ZM107.965 26.032H148.005V24.032H107.965V26.032ZM147.005 25.032V27.944H149.005V25.032H147.005ZM148.005 26.944H127.845V28.944H148.005V26.944ZM126.845 27.944V45.192H128.845V27.944H126.845ZM127.845 46.192H148.285V44.192H127.845V46.192ZM147.285 45.192V48.104H149.285V45.192H147.285ZM148.285 47.104H104.045V49.104H148.285V47.104ZM105.045 48.104V45.192H103.045V48.104H105.045ZM104.045 46.192H124.485V44.192H104.045V46.192ZM125.485 45.192V27.944H123.485V45.192H125.485ZM124.485 26.944H104.605V28.944H124.485V26.944ZM105.605 27.944V0.727997H103.605V27.944H105.605ZM104.605 1.728H107.965V-0.272003H104.605V1.728ZM106.965 0.727997V25.032H108.965V0.727997H106.965Z" fill="black" mask="url(#path-1-outside-1_197_97)"/>
</svg>
