<svg width="113" height="154" viewBox="0 0 113 154" fill="none" xmlns="http://www.w3.org/2000/svg">
<path d="M106.295 51.2016C129.795 111.202 83.9092 101.202 56.295 101.202C28.6807 101.202 -16.705 110.202 6.29498 51.2016C-10.2051 -12.2984 28.6807 1.20161 56.295 1.20161C83.9092 1.20161 123.795 -11.7984 106.295 51.2016Z" fill="#6184CA"/>
<path d="M15.78 136.19C15.78 133.81 15.96 131.81 16.32 130.19C16.7 128.57 17.23 127.26 17.91 126.26C18.61 125.26 19.46 124.54 20.46 124.1C21.48 123.66 22.62 123.44 23.88 123.44C24.92 123.44 25.86 123.58 26.7 123.86C27.56 124.14 28.32 124.6 28.98 125.24C29.64 125.86 30.2 126.68 30.66 127.7C31.12 128.72 31.46 129.96 31.68 131.42H32.85V123.89H41.52V148.52H32.85V139.97H31.83C31.65 141.63 31.33 143.03 30.87 144.17C30.43 145.31 29.87 146.23 29.19 146.93C28.53 147.63 27.75 148.14 26.85 148.46C25.95 148.78 24.96 148.94 23.88 148.94C22.62 148.94 21.48 148.72 20.46 148.28C19.46 147.84 18.61 147.12 17.91 146.12C17.23 145.12 16.7 143.81 16.32 142.19C15.96 140.57 15.78 138.57 15.78 136.19ZM21.06 134.63L20.52 135.44C21.52 135.9 22.6 136.24 23.76 136.46C24.92 136.68 26.07 136.79 27.21 136.79V135.89C26.07 135.89 24.98 135.77 23.94 135.53C22.92 135.29 21.96 134.99 21.06 134.63ZM43.6777 123.89H59.3077V129.41C58.8677 129.53 58.3277 129.63 57.6877 129.71C57.0477 129.79 56.3777 129.86 55.6777 129.92C54.9777 129.96 54.2777 129.99 53.5777 130.01C52.8977 130.03 52.2877 130.04 51.7477 130.04V130.94C52.3077 130.94 52.9477 130.93 53.6677 130.91C54.3877 130.87 55.1377 130.82 55.9177 130.76C56.6977 130.68 57.4777 130.59 58.2577 130.49C59.0377 130.39 59.7677 130.26 60.4477 130.1V123.89H69.1177V137.33H60.4477V136.28C59.8477 136.46 59.1177 136.62 58.2577 136.76C57.3977 136.88 56.4677 136.99 55.4677 137.09C54.4877 137.19 53.4577 137.27 52.3777 137.33C51.3177 137.37 50.2577 137.39 49.1977 137.39C48.1377 137.39 47.2577 137.29 46.5577 137.09C45.8577 136.89 45.2877 136.59 44.8477 136.19C44.4277 135.79 44.1277 135.29 43.9477 134.69C43.7677 134.07 43.6777 133.35 43.6777 132.53V123.89ZM43.6777 142.28C45.0977 142.2 46.2977 142.08 47.2777 141.92C48.2777 141.76 49.0777 141.55 49.6777 141.29C50.2977 141.01 50.7477 140.69 51.0277 140.33C51.3077 139.95 51.4477 139.5 51.4477 138.98V138.11H61.5877V138.98C61.5877 139.5 61.7277 139.95 62.0077 140.33C62.2877 140.69 62.7377 141.01 63.3577 141.29C63.9777 141.55 64.7877 141.76 65.7877 141.92C66.7877 142.08 67.9977 142.2 69.4177 142.28V148.49C67.4777 148.49 65.7877 148.44 64.3477 148.34C62.9277 148.26 61.6377 148.09 60.4777 147.83C59.3177 147.59 58.2277 147.24 57.2077 146.78C56.1877 146.32 55.1177 145.73 53.9977 145.01L52.9477 145.55C53.2877 145.81 53.6777 146.05 54.1177 146.27C54.5577 146.49 55.0277 146.71 55.5277 146.93C54.6877 147.17 53.8377 147.39 52.9777 147.59C52.1377 147.79 51.2377 147.96 50.2777 148.1C49.3377 148.24 48.3277 148.34 47.2477 148.4C46.1677 148.46 44.9777 148.49 43.6777 148.49V142.28ZM71.2753 136.61V123.89H81.2053V132.68H96.7153V140.39H88.9153V141.86H96.7153V148.52H71.2753V141.86H79.6753V140.39H75.0553C73.8553 140.39 72.9253 140.06 72.2653 139.4C71.6053 138.74 71.2753 137.81 71.2753 136.61Z" fill="#6184CA"/>
</svg>
