<svg width="30" height="30" viewBox="0 0 30 30" fill="none" xmlns="http://www.w3.org/2000/svg">
<path d="M4.1665 15V27.9167H14.4998C21.9998 27.9167 24.9582 27.7917 25.3332 27.4167C26.0415 26.7083 26.0415 3.29165 25.3332 2.58332C24.9582 2.20832 21.9998 2.08332 14.4998 2.08332H4.1665V15ZM16.8332 8.95832C17.6665 9.74999 17.9165 10.3333 17.9165 11.7917C17.9165 12.7917 17.6248 13.9583 17.2915 14.4167C16.1248 15.9167 16.4998 16.9167 18.6665 17.9583C19.9998 18.6667 20.6665 19.25 20.7498 19.875C20.8748 20.8333 20.8748 20.8333 14.9998 20.8333C9.12484 20.8333 9.12484 20.8333 9.24984 19.9167C9.33317 19.25 9.99984 18.6667 11.3748 18C13.4998 17 13.8748 15.9583 12.7082 14.4167C12.3748 13.9583 12.0832 12.7083 12.0832 11.625C12.0832 9.99999 12.2915 9.49999 13.1665 8.79165C14.6248 7.66665 15.4582 7.70832 16.8332 8.95832Z" fill="#F3A941"/>
</svg>
