<svg width="30" height="30" viewBox="0 0 30 30" fill="none" xmlns="http://www.w3.org/2000/svg">
<path d="M5.4165 2.87499C4.83317 3.95832 4.83317 26.0417 5.4165 27.125C5.83317 27.875 6.37484 27.9167 14.9998 27.9167C23.6248 27.9167 24.1665 27.875 24.5832 27.125C24.8332 26.625 24.9998 22.7917 24.9998 17.625V8.95832L21.5415 5.49999L18.1248 2.08332H11.9998C6.37484 2.08332 5.83317 2.16665 5.4165 2.87499ZM20.5832 9.91665C17.1665 10.0833 17.0832 10.0417 17.0832 6.79165V3.99999L19.9998 6.87499L22.9582 9.79165L20.5832 9.91665ZM20.6248 16.0417C20.6248 16.8333 20.2915 16.875 15.2498 17C9.7915 17.125 8.83317 16.875 9.2915 15.625C9.5415 15.0833 10.3332 15 15.0832 15.0833C20.2915 15.2083 20.6248 15.25 20.6248 16.0417ZM18.8748 19.4167C18.9998 19.5417 18.9998 19.9167 18.8748 20.25C18.7082 20.7083 17.5832 20.8333 13.9165 20.8333C9.45817 20.8333 9.1665 20.7917 9.1665 20C9.1665 19.2083 9.45817 19.1667 13.8748 19.1667C16.4998 19.1667 18.7082 19.2917 18.8748 19.4167Z" fill="#F3A941"/>
</svg>
